<?xml version="1.0" encoding="utf-8" standalone="no"?>
<!DOCTYPE svg PUBLIC "-//W3C//DTD SVG 1.1//EN"
  "http://www.w3.org/Graphics/SVG/1.1/DTD/svg11.dtd">
<svg xmlns:xlink="http://www.w3.org/1999/xlink" width="720pt" height="432pt" viewBox="0 0 720 432" xmlns="http://www.w3.org/2000/svg" version="1.1">
 <metadata>
  <rdf:RDF xmlns:dc="http://purl.org/dc/elements/1.1/" xmlns:cc="http://creativecommons.org/ns#" xmlns:rdf="http://www.w3.org/1999/02/22-rdf-syntax-ns#">
   <cc:Work>
    <dc:type rdf:resource="http://purl.org/dc/dcmitype/StillImage"/>
    <dc:date>2025-08-13T19:25:24.921823</dc:date>
    <dc:format>image/svg+xml</dc:format>
    <dc:creator>
     <cc:Agent>
      <dc:title>Matplotlib v3.10.5, https://matplotlib.org/</dc:title>
     </cc:Agent>
    </dc:creator>
   </cc:Work>
  </rdf:RDF>
 </metadata>
 <defs>
  <style type="text/css">*{stroke-linejoin: round; stroke-linecap: butt}</style>
 </defs>
 <g id="figure_1">
  <g id="patch_1">
   <path d="M 0 432 
L 720 432 
L 720 0 
L 0 0 
z
" style="fill: #ffffff"/>
  </g>
  <g id="axes_1">
   <g id="patch_2">
    <path d="M 90 384.48 
L 648 384.48 
L 648 51.84 
L 90 51.84 
z
" style="fill: #eaeaf2"/>
   </g>
   <g id="matplotlib.axis_1">
    <g id="xtick_1">
     <g id="line2d_1">
      <path d="M 115.363636 384.48 
L 115.363636 51.84 
" clip-path="url(#p0c11eada3a)" style="fill: none; stroke: #ffffff; stroke-linecap: round"/>
     </g>
     <g id="text_1">
      <!-- 2024-01 -->
      <g style="fill: #262626" transform="translate(95.181214 401.853594) scale(0.11 -0.11)">
       <defs>
        <path id="ArialMT-32" d="M 3222 541 
L 3222 0 
L 194 0 
Q 188 203 259 391 
Q 375 700 629 1000 
Q 884 1300 1366 1694 
Q 2113 2306 2375 2664 
Q 2638 3022 2638 3341 
Q 2638 3675 2398 3904 
Q 2159 4134 1775 4134 
Q 1369 4134 1125 3890 
Q 881 3647 878 3216 
L 300 3275 
Q 359 3922 746 4261 
Q 1134 4600 1788 4600 
Q 2447 4600 2831 4234 
Q 3216 3869 3216 3328 
Q 3216 3053 3103 2787 
Q 2991 2522 2730 2228 
Q 2469 1934 1863 1422 
Q 1356 997 1212 845 
Q 1069 694 975 541 
L 3222 541 
z
" transform="scale(0.015625)"/>
        <path id="ArialMT-30" d="M 266 2259 
Q 266 3072 433 3567 
Q 600 4063 929 4331 
Q 1259 4600 1759 4600 
Q 2128 4600 2406 4451 
Q 2684 4303 2865 4023 
Q 3047 3744 3150 3342 
Q 3253 2941 3253 2259 
Q 3253 1453 3087 958 
Q 2922 463 2592 192 
Q 2263 -78 1759 -78 
Q 1097 -78 719 397 
Q 266 969 266 2259 
z
M 844 2259 
Q 844 1131 1108 757 
Q 1372 384 1759 384 
Q 2147 384 2411 759 
Q 2675 1134 2675 2259 
Q 2675 3391 2411 3762 
Q 2147 4134 1753 4134 
Q 1366 4134 1134 3806 
Q 844 3388 844 2259 
z
" transform="scale(0.015625)"/>
        <path id="ArialMT-34" d="M 2069 0 
L 2069 1097 
L 81 1097 
L 81 1613 
L 2172 4581 
L 2631 4581 
L 2631 1613 
L 3250 1613 
L 3250 1097 
L 2631 1097 
L 2631 0 
L 2069 0 
z
M 2069 1613 
L 2069 3678 
L 634 1613 
L 2069 1613 
z
" transform="scale(0.015625)"/>
        <path id="ArialMT-2d" d="M 203 1375 
L 203 1941 
L 1931 1941 
L 1931 1375 
L 203 1375 
z
" transform="scale(0.015625)"/>
        <path id="ArialMT-31" d="M 2384 0 
L 1822 0 
L 1822 3584 
Q 1619 3391 1289 3197 
Q 959 3003 697 2906 
L 697 3450 
Q 1169 3672 1522 3987 
Q 1875 4303 2022 4600 
L 2384 4600 
L 2384 0 
z
" transform="scale(0.015625)"/>
       </defs>
       <use xlink:href="#ArialMT-32"/>
       <use xlink:href="#ArialMT-30" transform="translate(55.615234 0)"/>
       <use xlink:href="#ArialMT-32" transform="translate(111.230469 0)"/>
       <use xlink:href="#ArialMT-34" transform="translate(166.845703 0)"/>
       <use xlink:href="#ArialMT-2d" transform="translate(222.460938 0)"/>
       <use xlink:href="#ArialMT-30" transform="translate(255.761719 0)"/>
       <use xlink:href="#ArialMT-31" transform="translate(311.376953 0)"/>
      </g>
     </g>
    </g>
    <g id="xtick_2">
     <g id="line2d_2">
      <path d="M 194.386021 384.48 
L 194.386021 51.84 
" clip-path="url(#p0c11eada3a)" style="fill: none; stroke: #ffffff; stroke-linecap: round"/>
     </g>
     <g id="text_2">
      <!-- 2024-02 -->
      <g style="fill: #262626" transform="translate(174.203599 401.853594) scale(0.11 -0.11)">
       <use xlink:href="#ArialMT-32"/>
       <use xlink:href="#ArialMT-30" transform="translate(55.615234 0)"/>
       <use xlink:href="#ArialMT-32" transform="translate(111.230469 0)"/>
       <use xlink:href="#ArialMT-34" transform="translate(166.845703 0)"/>
       <use xlink:href="#ArialMT-2d" transform="translate(222.460938 0)"/>
       <use xlink:href="#ArialMT-30" transform="translate(255.761719 0)"/>
       <use xlink:href="#ArialMT-32" transform="translate(311.376953 0)"/>
      </g>
     </g>
    </g>
    <g id="xtick_3">
     <g id="line2d_3">
      <path d="M 268.310187 384.48 
L 268.310187 51.84 
" clip-path="url(#p0c11eada3a)" style="fill: none; stroke: #ffffff; stroke-linecap: round"/>
     </g>
     <g id="text_3">
      <!-- 2024-03 -->
      <g style="fill: #262626" transform="translate(248.127765 401.853594) scale(0.11 -0.11)">
       <defs>
        <path id="ArialMT-33" d="M 269 1209 
L 831 1284 
Q 928 806 1161 595 
Q 1394 384 1728 384 
Q 2125 384 2398 659 
Q 2672 934 2672 1341 
Q 2672 1728 2419 1979 
Q 2166 2231 1775 2231 
Q 1616 2231 1378 2169 
L 1441 2663 
Q 1497 2656 1531 2656 
Q 1891 2656 2178 2843 
Q 2466 3031 2466 3422 
Q 2466 3731 2256 3934 
Q 2047 4138 1716 4138 
Q 1388 4138 1169 3931 
Q 950 3725 888 3313 
L 325 3413 
Q 428 3978 793 4289 
Q 1159 4600 1703 4600 
Q 2078 4600 2393 4439 
Q 2709 4278 2876 4000 
Q 3044 3722 3044 3409 
Q 3044 3113 2884 2869 
Q 2725 2625 2413 2481 
Q 2819 2388 3044 2092 
Q 3269 1797 3269 1353 
Q 3269 753 2831 336 
Q 2394 -81 1725 -81 
Q 1122 -81 723 278 
Q 325 638 269 1209 
z
" transform="scale(0.015625)"/>
       </defs>
       <use xlink:href="#ArialMT-32"/>
       <use xlink:href="#ArialMT-30" transform="translate(55.615234 0)"/>
       <use xlink:href="#ArialMT-32" transform="translate(111.230469 0)"/>
       <use xlink:href="#ArialMT-34" transform="translate(166.845703 0)"/>
       <use xlink:href="#ArialMT-2d" transform="translate(222.460938 0)"/>
       <use xlink:href="#ArialMT-30" transform="translate(255.761719 0)"/>
       <use xlink:href="#ArialMT-33" transform="translate(311.376953 0)"/>
      </g>
     </g>
    </g>
    <g id="xtick_4">
     <g id="line2d_4">
      <path d="M 347.332572 384.48 
L 347.332572 51.84 
" clip-path="url(#p0c11eada3a)" style="fill: none; stroke: #ffffff; stroke-linecap: round"/>
     </g>
     <g id="text_4">
      <!-- 2024-04 -->
      <g style="fill: #262626" transform="translate(327.15015 401.853594) scale(0.11 -0.11)">
       <use xlink:href="#ArialMT-32"/>
       <use xlink:href="#ArialMT-30" transform="translate(55.615234 0)"/>
       <use xlink:href="#ArialMT-32" transform="translate(111.230469 0)"/>
       <use xlink:href="#ArialMT-34" transform="translate(166.845703 0)"/>
       <use xlink:href="#ArialMT-2d" transform="translate(222.460938 0)"/>
       <use xlink:href="#ArialMT-30" transform="translate(255.761719 0)"/>
       <use xlink:href="#ArialMT-34" transform="translate(311.376953 0)"/>
      </g>
     </g>
    </g>
    <g id="xtick_5">
     <g id="line2d_5">
      <path d="M 423.805847 384.48 
L 423.805847 51.84 
" clip-path="url(#p0c11eada3a)" style="fill: none; stroke: #ffffff; stroke-linecap: round"/>
     </g>
     <g id="text_5">
      <!-- 2024-05 -->
      <g style="fill: #262626" transform="translate(403.623426 401.853594) scale(0.11 -0.11)">
       <defs>
        <path id="ArialMT-35" d="M 266 1200 
L 856 1250 
Q 922 819 1161 601 
Q 1400 384 1738 384 
Q 2144 384 2425 690 
Q 2706 997 2706 1503 
Q 2706 1984 2436 2262 
Q 2166 2541 1728 2541 
Q 1456 2541 1237 2417 
Q 1019 2294 894 2097 
L 366 2166 
L 809 4519 
L 3088 4519 
L 3088 3981 
L 1259 3981 
L 1013 2750 
Q 1425 3038 1878 3038 
Q 2478 3038 2890 2622 
Q 3303 2206 3303 1553 
Q 3303 931 2941 478 
Q 2500 -78 1738 -78 
Q 1113 -78 717 272 
Q 322 622 266 1200 
z
" transform="scale(0.015625)"/>
       </defs>
       <use xlink:href="#ArialMT-32"/>
       <use xlink:href="#ArialMT-30" transform="translate(55.615234 0)"/>
       <use xlink:href="#ArialMT-32" transform="translate(111.230469 0)"/>
       <use xlink:href="#ArialMT-34" transform="translate(166.845703 0)"/>
       <use xlink:href="#ArialMT-2d" transform="translate(222.460938 0)"/>
       <use xlink:href="#ArialMT-30" transform="translate(255.761719 0)"/>
       <use xlink:href="#ArialMT-35" transform="translate(311.376953 0)"/>
      </g>
     </g>
    </g>
    <g id="xtick_6">
     <g id="line2d_6">
      <path d="M 502.828232 384.48 
L 502.828232 51.84 
" clip-path="url(#p0c11eada3a)" style="fill: none; stroke: #ffffff; stroke-linecap: round"/>
     </g>
     <g id="text_6">
      <!-- 2024-06 -->
      <g style="fill: #262626" transform="translate(482.64581 401.853594) scale(0.11 -0.11)">
       <defs>
        <path id="ArialMT-36" d="M 3184 3459 
L 2625 3416 
Q 2550 3747 2413 3897 
Q 2184 4138 1850 4138 
Q 1581 4138 1378 3988 
Q 1113 3794 959 3422 
Q 806 3050 800 2363 
Q 1003 2672 1297 2822 
Q 1591 2972 1913 2972 
Q 2475 2972 2870 2558 
Q 3266 2144 3266 1488 
Q 3266 1056 3080 686 
Q 2894 316 2569 119 
Q 2244 -78 1831 -78 
Q 1128 -78 684 439 
Q 241 956 241 2144 
Q 241 3472 731 4075 
Q 1159 4600 1884 4600 
Q 2425 4600 2770 4297 
Q 3116 3994 3184 3459 
z
M 888 1484 
Q 888 1194 1011 928 
Q 1134 663 1356 523 
Q 1578 384 1822 384 
Q 2178 384 2434 671 
Q 2691 959 2691 1453 
Q 2691 1928 2437 2201 
Q 2184 2475 1800 2475 
Q 1419 2475 1153 2201 
Q 888 1928 888 1484 
z
" transform="scale(0.015625)"/>
       </defs>
       <use xlink:href="#ArialMT-32"/>
       <use xlink:href="#ArialMT-30" transform="translate(55.615234 0)"/>
       <use xlink:href="#ArialMT-32" transform="translate(111.230469 0)"/>
       <use xlink:href="#ArialMT-34" transform="translate(166.845703 0)"/>
       <use xlink:href="#ArialMT-2d" transform="translate(222.460938 0)"/>
       <use xlink:href="#ArialMT-30" transform="translate(255.761719 0)"/>
       <use xlink:href="#ArialMT-36" transform="translate(311.376953 0)"/>
      </g>
     </g>
    </g>
    <g id="xtick_7">
     <g id="line2d_7">
      <path d="M 579.301508 384.48 
L 579.301508 51.84 
" clip-path="url(#p0c11eada3a)" style="fill: none; stroke: #ffffff; stroke-linecap: round"/>
     </g>
     <g id="text_7">
      <!-- 2024-07 -->
      <g style="fill: #262626" transform="translate(559.119086 401.853594) scale(0.11 -0.11)">
       <defs>
        <path id="ArialMT-37" d="M 303 3981 
L 303 4522 
L 3269 4522 
L 3269 4084 
Q 2831 3619 2401 2847 
Q 1972 2075 1738 1259 
Q 1569 684 1522 0 
L 944 0 
Q 953 541 1156 1306 
Q 1359 2072 1739 2783 
Q 2119 3494 2547 3981 
L 303 3981 
z
" transform="scale(0.015625)"/>
       </defs>
       <use xlink:href="#ArialMT-32"/>
       <use xlink:href="#ArialMT-30" transform="translate(55.615234 0)"/>
       <use xlink:href="#ArialMT-32" transform="translate(111.230469 0)"/>
       <use xlink:href="#ArialMT-34" transform="translate(166.845703 0)"/>
       <use xlink:href="#ArialMT-2d" transform="translate(222.460938 0)"/>
       <use xlink:href="#ArialMT-30" transform="translate(255.761719 0)"/>
       <use xlink:href="#ArialMT-37" transform="translate(311.376953 0)"/>
      </g>
     </g>
    </g>
    <g id="text_8">
     <!-- Date -->
     <g style="fill: #262626" transform="translate(356.326875 416.629219) scale(0.12 -0.12)">
      <defs>
       <path id="ArialMT-44" d="M 494 0 
L 494 4581 
L 2072 4581 
Q 2606 4581 2888 4516 
Q 3281 4425 3559 4188 
Q 3922 3881 4101 3404 
Q 4281 2928 4281 2316 
Q 4281 1794 4159 1391 
Q 4038 988 3847 723 
Q 3656 459 3429 307 
Q 3203 156 2883 78 
Q 2563 0 2147 0 
L 494 0 
z
M 1100 541 
L 2078 541 
Q 2531 541 2789 625 
Q 3047 709 3200 863 
Q 3416 1078 3536 1442 
Q 3656 1806 3656 2325 
Q 3656 3044 3420 3430 
Q 3184 3816 2847 3947 
Q 2603 4041 2063 4041 
L 1100 4041 
L 1100 541 
z
" transform="scale(0.015625)"/>
       <path id="ArialMT-61" d="M 2588 409 
Q 2275 144 1986 34 
Q 1697 -75 1366 -75 
Q 819 -75 525 192 
Q 231 459 231 875 
Q 231 1119 342 1320 
Q 453 1522 633 1644 
Q 813 1766 1038 1828 
Q 1203 1872 1538 1913 
Q 2219 1994 2541 2106 
Q 2544 2222 2544 2253 
Q 2544 2597 2384 2738 
Q 2169 2928 1744 2928 
Q 1347 2928 1158 2789 
Q 969 2650 878 2297 
L 328 2372 
Q 403 2725 575 2942 
Q 747 3159 1072 3276 
Q 1397 3394 1825 3394 
Q 2250 3394 2515 3294 
Q 2781 3194 2906 3042 
Q 3031 2891 3081 2659 
Q 3109 2516 3109 2141 
L 3109 1391 
Q 3109 606 3145 398 
Q 3181 191 3288 0 
L 2700 0 
Q 2613 175 2588 409 
z
M 2541 1666 
Q 2234 1541 1622 1453 
Q 1275 1403 1131 1340 
Q 988 1278 909 1158 
Q 831 1038 831 891 
Q 831 666 1001 516 
Q 1172 366 1500 366 
Q 1825 366 2078 508 
Q 2331 650 2450 897 
Q 2541 1088 2541 1459 
L 2541 1666 
z
" transform="scale(0.015625)"/>
       <path id="ArialMT-74" d="M 1650 503 
L 1731 6 
Q 1494 -44 1306 -44 
Q 1000 -44 831 53 
Q 663 150 594 308 
Q 525 466 525 972 
L 525 2881 
L 113 2881 
L 113 3319 
L 525 3319 
L 525 4141 
L 1084 4478 
L 1084 3319 
L 1650 3319 
L 1650 2881 
L 1084 2881 
L 1084 941 
Q 1084 700 1114 631 
Q 1144 563 1211 522 
Q 1278 481 1403 481 
Q 1497 481 1650 503 
z
" transform="scale(0.015625)"/>
       <path id="ArialMT-65" d="M 2694 1069 
L 3275 997 
Q 3138 488 2766 206 
Q 2394 -75 1816 -75 
Q 1088 -75 661 373 
Q 234 822 234 1631 
Q 234 2469 665 2931 
Q 1097 3394 1784 3394 
Q 2450 3394 2872 2941 
Q 3294 2488 3294 1666 
Q 3294 1616 3291 1516 
L 816 1516 
Q 847 969 1125 678 
Q 1403 388 1819 388 
Q 2128 388 2347 550 
Q 2566 713 2694 1069 
z
M 847 1978 
L 2700 1978 
Q 2663 2397 2488 2606 
Q 2219 2931 1791 2931 
Q 1403 2931 1139 2672 
Q 875 2413 847 1978 
z
" transform="scale(0.015625)"/>
      </defs>
      <use xlink:href="#ArialMT-44"/>
      <use xlink:href="#ArialMT-61" transform="translate(72.216797 0)"/>
      <use xlink:href="#ArialMT-74" transform="translate(127.832031 0)"/>
      <use xlink:href="#ArialMT-65" transform="translate(155.615234 0)"/>
     </g>
    </g>
   </g>
   <g id="matplotlib.axis_2">
    <g id="ytick_1">
     <g id="line2d_8">
      <path d="M 90 369.991221 
L 648 369.991221 
" clip-path="url(#p0c11eada3a)" style="fill: none; stroke: #ffffff; stroke-linecap: round"/>
     </g>
     <g id="text_9">
      <!-- 0 -->
      <g style="fill: #262626" transform="translate(74.382969 373.928018) scale(0.11 -0.11)">
       <use xlink:href="#ArialMT-30"/>
      </g>
     </g>
    </g>
    <g id="ytick_2">
     <g id="line2d_9">
      <path d="M 90 302.92565 
L 648 302.92565 
" clip-path="url(#p0c11eada3a)" style="fill: none; stroke: #ffffff; stroke-linecap: round"/>
     </g>
     <g id="text_10">
      <!-- 5000 -->
      <g style="fill: #262626" transform="translate(56.031875 306.862447) scale(0.11 -0.11)">
       <use xlink:href="#ArialMT-35"/>
       <use xlink:href="#ArialMT-30" transform="translate(55.615234 0)"/>
       <use xlink:href="#ArialMT-30" transform="translate(111.230469 0)"/>
       <use xlink:href="#ArialMT-30" transform="translate(166.845703 0)"/>
      </g>
     </g>
    </g>
    <g id="ytick_3">
     <g id="line2d_10">
      <path d="M 90 235.86008 
L 648 235.86008 
" clip-path="url(#p0c11eada3a)" style="fill: none; stroke: #ffffff; stroke-linecap: round"/>
     </g>
     <g id="text_11">
      <!-- 10000 -->
      <g style="fill: #262626" transform="translate(49.914844 239.796876) scale(0.11 -0.11)">
       <use xlink:href="#ArialMT-31"/>
       <use xlink:href="#ArialMT-30" transform="translate(55.615234 0)"/>
       <use xlink:href="#ArialMT-30" transform="translate(111.230469 0)"/>
       <use xlink:href="#ArialMT-30" transform="translate(166.845703 0)"/>
       <use xlink:href="#ArialMT-30" transform="translate(222.460938 0)"/>
      </g>
     </g>
    </g>
    <g id="ytick_4">
     <g id="line2d_11">
      <path d="M 90 168.794509 
L 648 168.794509 
" clip-path="url(#p0c11eada3a)" style="fill: none; stroke: #ffffff; stroke-linecap: round"/>
     </g>
     <g id="text_12">
      <!-- 15000 -->
      <g style="fill: #262626" transform="translate(49.914844 172.731306) scale(0.11 -0.11)">
       <use xlink:href="#ArialMT-31"/>
       <use xlink:href="#ArialMT-35" transform="translate(55.615234 0)"/>
       <use xlink:href="#ArialMT-30" transform="translate(111.230469 0)"/>
       <use xlink:href="#ArialMT-30" transform="translate(166.845703 0)"/>
       <use xlink:href="#ArialMT-30" transform="translate(222.460938 0)"/>
      </g>
     </g>
    </g>
    <g id="ytick_5">
     <g id="line2d_12">
      <path d="M 90 101.728938 
L 648 101.728938 
" clip-path="url(#p0c11eada3a)" style="fill: none; stroke: #ffffff; stroke-linecap: round"/>
     </g>
     <g id="text_13">
      <!-- 20000 -->
      <g style="fill: #262626" transform="translate(49.914844 105.665735) scale(0.11 -0.11)">
       <use xlink:href="#ArialMT-32"/>
       <use xlink:href="#ArialMT-30" transform="translate(55.615234 0)"/>
       <use xlink:href="#ArialMT-30" transform="translate(111.230469 0)"/>
       <use xlink:href="#ArialMT-30" transform="translate(166.845703 0)"/>
       <use xlink:href="#ArialMT-30" transform="translate(222.460938 0)"/>
      </g>
     </g>
    </g>
    <g id="text_14">
     <!-- TotalRevenue -->
     <g style="fill: #262626" transform="translate(43.529844 254.84625) rotate(-90) scale(0.12 -0.12)">
      <defs>
       <path id="ArialMT-54" d="M 1659 0 
L 1659 4041 
L 150 4041 
L 150 4581 
L 3781 4581 
L 3781 4041 
L 2266 4041 
L 2266 0 
L 1659 0 
z
" transform="scale(0.015625)"/>
       <path id="ArialMT-6f" d="M 213 1659 
Q 213 2581 725 3025 
Q 1153 3394 1769 3394 
Q 2453 3394 2887 2945 
Q 3322 2497 3322 1706 
Q 3322 1066 3130 698 
Q 2938 331 2570 128 
Q 2203 -75 1769 -75 
Q 1072 -75 642 372 
Q 213 819 213 1659 
z
M 791 1659 
Q 791 1022 1069 705 
Q 1347 388 1769 388 
Q 2188 388 2466 706 
Q 2744 1025 2744 1678 
Q 2744 2294 2464 2611 
Q 2184 2928 1769 2928 
Q 1347 2928 1069 2612 
Q 791 2297 791 1659 
z
" transform="scale(0.015625)"/>
       <path id="ArialMT-6c" d="M 409 0 
L 409 4581 
L 972 4581 
L 972 0 
L 409 0 
z
" transform="scale(0.015625)"/>
       <path id="ArialMT-52" d="M 503 0 
L 503 4581 
L 2534 4581 
Q 3147 4581 3465 4457 
Q 3784 4334 3975 4021 
Q 4166 3709 4166 3331 
Q 4166 2844 3850 2509 
Q 3534 2175 2875 2084 
Q 3116 1969 3241 1856 
Q 3506 1613 3744 1247 
L 4541 0 
L 3778 0 
L 3172 953 
Q 2906 1366 2734 1584 
Q 2563 1803 2427 1890 
Q 2291 1978 2150 2013 
Q 2047 2034 1813 2034 
L 1109 2034 
L 1109 0 
L 503 0 
z
M 1109 2559 
L 2413 2559 
Q 2828 2559 3062 2645 
Q 3297 2731 3419 2920 
Q 3541 3109 3541 3331 
Q 3541 3656 3305 3865 
Q 3069 4075 2559 4075 
L 1109 4075 
L 1109 2559 
z
" transform="scale(0.015625)"/>
       <path id="ArialMT-76" d="M 1344 0 
L 81 3319 
L 675 3319 
L 1388 1331 
Q 1503 1009 1600 663 
Q 1675 925 1809 1294 
L 2547 3319 
L 3125 3319 
L 1869 0 
L 1344 0 
z
" transform="scale(0.015625)"/>
       <path id="ArialMT-6e" d="M 422 0 
L 422 3319 
L 928 3319 
L 928 2847 
Q 1294 3394 1984 3394 
Q 2284 3394 2536 3286 
Q 2788 3178 2913 3003 
Q 3038 2828 3088 2588 
Q 3119 2431 3119 2041 
L 3119 0 
L 2556 0 
L 2556 2019 
Q 2556 2363 2490 2533 
Q 2425 2703 2258 2804 
Q 2091 2906 1866 2906 
Q 1506 2906 1245 2678 
Q 984 2450 984 1813 
L 984 0 
L 422 0 
z
" transform="scale(0.015625)"/>
       <path id="ArialMT-75" d="M 2597 0 
L 2597 488 
Q 2209 -75 1544 -75 
Q 1250 -75 995 37 
Q 741 150 617 320 
Q 494 491 444 738 
Q 409 903 409 1263 
L 409 3319 
L 972 3319 
L 972 1478 
Q 972 1038 1006 884 
Q 1059 663 1231 536 
Q 1403 409 1656 409 
Q 1909 409 2131 539 
Q 2353 669 2445 892 
Q 2538 1116 2538 1541 
L 2538 3319 
L 3100 3319 
L 3100 0 
L 2597 0 
z
" transform="scale(0.015625)"/>
      </defs>
      <use xlink:href="#ArialMT-54"/>
      <use xlink:href="#ArialMT-6f" transform="translate(49.958984 0)"/>
      <use xlink:href="#ArialMT-74" transform="translate(105.574219 0)"/>
      <use xlink:href="#ArialMT-61" transform="translate(133.357422 0)"/>
      <use xlink:href="#ArialMT-6c" transform="translate(188.972656 0)"/>
      <use xlink:href="#ArialMT-52" transform="translate(211.189453 0)"/>
      <use xlink:href="#ArialMT-65" transform="translate(283.40625 0)"/>
      <use xlink:href="#ArialMT-76" transform="translate(339.021484 0)"/>
      <use xlink:href="#ArialMT-65" transform="translate(389.021484 0)"/>
      <use xlink:href="#ArialMT-6e" transform="translate(444.636719 0)"/>
      <use xlink:href="#ArialMT-75" transform="translate(500.251953 0)"/>
      <use xlink:href="#ArialMT-65" transform="translate(555.867188 0)"/>
     </g>
    </g>
   </g>
   <g id="FillBetweenPolyCollection_1"/>
   <g id="line2d_13">
    <path d="M 115.363636 152.269016 
L 117.912746 279.065598 
L 120.461855 133.48918 
L 123.010964 170.886552 
L 125.560073 356.494946 
L 128.109182 359.568427 
L 130.658291 365.283889 
L 133.207401 179.393552 
L 135.75651 278.932272 
L 138.305619 354.174477 
L 140.854728 163.24443 
L 143.403837 129.989833 
L 145.952947 299.644132 
L 148.502056 360.029435 
L 151.051165 294.202834 
L 153.600274 284.829884 
L 156.149383 207.287464 
L 158.698492 358.711329 
L 161.247602 209.863452 
L 163.796711 255.765409 
L 166.34582 344.350041 
L 168.894929 273.979345 
L 171.444038 332.334708 
L 173.993148 322.539513 
L 176.542257 336.606248 
L 179.091366 304.097957 
L 181.640475 278.220035 
L 184.189584 307.143538 
L 186.738693 96.034266 
L 189.287803 324.635849 
L 191.836912 354.777531 
L 194.386021 102.908621 
L 196.93513 354.872361 
L 199.484239 312.947259 
L 202.033349 199.450449 
L 204.582458 227.523829 
L 207.131567 248.98347 
L 209.680676 269.452419 
L 212.229785 310.301522 
L 214.778894 158.102245 
L 217.328004 313.439654 
L 219.877113 242.892844 
L 222.426222 211.407972 
L 224.975331 176.406988 
L 227.52444 279.657921 
L 230.07355 66.96 
L 232.622659 134.784217 
L 235.171768 333.988277 
L 237.720877 265.075586 
L 240.269986 240.285737 
L 242.819095 271.38659 
L 245.368205 209.909459 
L 247.917314 340.313365 
L 250.466423 361.896138 
L 253.015532 244.922382 
L 255.564641 354.278563 
L 258.113751 245.397743 
L 260.66286 304.665063 
L 263.211969 257.924921 
L 265.761078 316.020203 
L 268.310187 240.495652 
L 270.859296 227.381382 
L 273.408406 240.501017 
L 275.957515 339.725736 
L 278.506624 173.449396 
L 281.055733 238.633912 
L 283.604842 209.999595 
L 286.153952 217.755729 
L 288.703061 304.230746 
L 291.25217 338.336003 
L 293.801279 286.884907 
L 296.350388 147.99439 
L 298.899497 160.695134 
L 301.448607 350.227266 
L 303.997716 229.977088 
L 306.546825 296.013604 
L 309.095934 307.766712 
L 311.645043 366.204297 
L 316.743262 279.753691 
L 319.292371 342.390788 
L 321.84148 185.826347 
L 324.390589 274.071091 
L 326.939698 69.276311 
L 329.488808 333.063308 
L 332.037917 351.155856 
L 334.587026 233.65094 
L 337.136135 291.064165 
L 339.685244 354.257638 
L 342.234354 324.982309 
L 344.783463 319.989814 
L 347.332572 326.322816 
L 349.881681 316.813052 
L 352.43079 269.229493 
L 354.979899 247.220987 
L 357.529009 131.322023 
L 360.078118 126.372987 
L 362.627227 361.634851 
L 365.176336 323.26704 
L 367.725445 347.265382 
L 370.274555 282.793907 
L 372.823664 328.485412 
L 375.372773 309.819857 
L 377.921882 273.066046 
L 380.470991 307.1595 
L 383.020101 351.415131 
L 385.56921 144.699325 
L 388.118319 324.781515 
L 390.667428 351.244919 
L 393.216537 341.060475 
L 395.765646 289.998627 
L 398.314756 299.386198 
L 400.863865 344.516498 
L 403.412974 368.813818 
L 405.962083 173.987798 
L 408.511192 351.64919 
L 411.060302 345.976382 
L 413.609411 254.831052 
L 416.15852 365.780576 
L 418.707629 209.035461 
L 421.256738 369.36 
L 423.805847 350.298087 
L 426.354957 282.528998 
L 428.904066 201.606608 
L 431.453175 282.939842 
L 434.002284 348.081838 
L 436.551393 317.293778 
L 439.100503 98.887504 
L 441.649612 109.481718 
L 444.198721 368.212374 
L 446.74783 361.424802 
L 449.296939 333.826783 
L 451.846048 344.342798 
L 454.395158 312.965366 
L 456.944267 119.102945 
L 459.493376 362.315701 
L 462.042485 136.778478 
L 464.591594 351.15438 
L 467.140704 194.275536 
L 469.689813 343.168346 
L 472.238922 245.13337 
L 474.788031 185.458425 
L 477.33714 341.819255 
L 479.886249 359.924679 
L 482.435359 200.82744 
L 487.533577 354.235104 
L 490.082686 361.725255 
L 492.631795 235.734667 
L 495.180905 304.675525 
L 497.730014 320.070829 
L 500.279123 343.079149 
L 502.828232 351.351821 
L 505.377341 346.39809 
L 507.92645 178.964868 
L 510.47556 349.846199 
L 513.024669 363.841979 
L 515.573778 360.86695 
L 518.122887 347.758984 
L 520.671996 348.959458 
L 523.221106 304.529859 
L 525.770215 213.071199 
L 528.319324 227.131496 
L 530.868433 235.848813 
L 533.417542 343.273907 
L 535.966651 238.09846 
L 538.515761 148.039056 
L 541.06487 355.663869 
L 543.613979 196.543559 
L 546.163088 314.678489 
L 548.712197 350.58942 
L 551.261307 331.893685 
L 553.810416 354.504708 
L 556.359525 361.708087 
L 558.908634 289.300207 
L 561.457743 133.403202 
L 564.006852 324.965409 
L 566.555962 365.299448 
L 569.105071 266.965091 
L 571.65418 272.115459 
L 574.203289 256.711704 
L 576.752398 239.276534 
L 579.301508 154.159326 
L 581.850617 363.691081 
L 586.948835 185.177689 
L 589.497944 368.142357 
L 592.047053 369.287033 
L 594.596163 269.68688 
L 597.145272 291.165971 
L 599.694381 329.521307 
L 602.24349 314.438395 
L 604.792599 328.173155 
L 607.341709 167.180643 
L 609.890818 268.549448 
L 612.439927 323.321095 
L 614.989036 205.949908 
L 617.538145 305.210708 
L 620.087254 259.957544 
L 622.636364 260.719945 
L 622.636364 260.719945 
" clip-path="url(#p0c11eada3a)" style="fill: none; stroke: #800080; stroke-width: 2; stroke-linecap: round"/>
    <defs>
     <path id="m9c7caee456" d="M 0 3 
C 0.795609 3 1.55874 2.683901 2.12132 2.12132 
C 2.683901 1.55874 3 0.795609 3 0 
C 3 -0.795609 2.683901 -1.55874 2.12132 -2.12132 
C 1.55874 -2.683901 0.795609 -3 0 -3 
C -0.795609 -3 -1.55874 -2.683901 -2.12132 -2.12132 
C -2.683901 -1.55874 -3 -0.795609 -3 0 
C -3 0.795609 -2.683901 1.55874 -2.12132 2.12132 
C -1.55874 2.683901 -0.795609 3 0 3 
z
" style="stroke: #ffffff; stroke-width: 0.75"/>
    </defs>
    <g clip-path="url(#p0c11eada3a)">
     <use xlink:href="#m9c7caee456" x="115.363636" y="152.269016" style="fill: #800080; stroke: #ffffff; stroke-width: 0.75"/>
     <use xlink:href="#m9c7caee456" x="117.912746" y="279.065598" style="fill: #800080; stroke: #ffffff; stroke-width: 0.75"/>
     <use xlink:href="#m9c7caee456" x="120.461855" y="133.48918" style="fill: #800080; stroke: #ffffff; stroke-width: 0.75"/>
     <use xlink:href="#m9c7caee456" x="123.010964" y="170.886552" style="fill: #800080; stroke: #ffffff; stroke-width: 0.75"/>
     <use xlink:href="#m9c7caee456" x="125.560073" y="356.494946" style="fill: #800080; stroke: #ffffff; stroke-width: 0.75"/>
     <use xlink:href="#m9c7caee456" x="128.109182" y="359.568427" style="fill: #800080; stroke: #ffffff; stroke-width: 0.75"/>
     <use xlink:href="#m9c7caee456" x="130.658291" y="365.283889" style="fill: #800080; stroke: #ffffff; stroke-width: 0.75"/>
     <use xlink:href="#m9c7caee456" x="133.207401" y="179.393552" style="fill: #800080; stroke: #ffffff; stroke-width: 0.75"/>
     <use xlink:href="#m9c7caee456" x="135.75651" y="278.932272" style="fill: #800080; stroke: #ffffff; stroke-width: 0.75"/>
     <use xlink:href="#m9c7caee456" x="138.305619" y="354.174477" style="fill: #800080; stroke: #ffffff; stroke-width: 0.75"/>
     <use xlink:href="#m9c7caee456" x="140.854728" y="163.24443" style="fill: #800080; stroke: #ffffff; stroke-width: 0.75"/>
     <use xlink:href="#m9c7caee456" x="143.403837" y="129.989833" style="fill: #800080; stroke: #ffffff; stroke-width: 0.75"/>
     <use xlink:href="#m9c7caee456" x="145.952947" y="299.644132" style="fill: #800080; stroke: #ffffff; stroke-width: 0.75"/>
     <use xlink:href="#m9c7caee456" x="148.502056" y="360.029435" style="fill: #800080; stroke: #ffffff; stroke-width: 0.75"/>
     <use xlink:href="#m9c7caee456" x="151.051165" y="294.202834" style="fill: #800080; stroke: #ffffff; stroke-width: 0.75"/>
     <use xlink:href="#m9c7caee456" x="153.600274" y="284.829884" style="fill: #800080; stroke: #ffffff; stroke-width: 0.75"/>
     <use xlink:href="#m9c7caee456" x="156.149383" y="207.287464" style="fill: #800080; stroke: #ffffff; stroke-width: 0.75"/>
     <use xlink:href="#m9c7caee456" x="158.698492" y="358.711329" style="fill: #800080; stroke: #ffffff; stroke-width: 0.75"/>
     <use xlink:href="#m9c7caee456" x="161.247602" y="209.863452" style="fill: #800080; stroke: #ffffff; stroke-width: 0.75"/>
     <use xlink:href="#m9c7caee456" x="163.796711" y="255.765409" style="fill: #800080; stroke: #ffffff; stroke-width: 0.75"/>
     <use xlink:href="#m9c7caee456" x="166.34582" y="344.350041" style="fill: #800080; stroke: #ffffff; stroke-width: 0.75"/>
     <use xlink:href="#m9c7caee456" x="168.894929" y="273.979345" style="fill: #800080; stroke: #ffffff; stroke-width: 0.75"/>
     <use xlink:href="#m9c7caee456" x="171.444038" y="332.334708" style="fill: #800080; stroke: #ffffff; stroke-width: 0.75"/>
     <use xlink:href="#m9c7caee456" x="173.993148" y="322.539513" style="fill: #800080; stroke: #ffffff; stroke-width: 0.75"/>
     <use xlink:href="#m9c7caee456" x="176.542257" y="336.606248" style="fill: #800080; stroke: #ffffff; stroke-width: 0.75"/>
     <use xlink:href="#m9c7caee456" x="179.091366" y="304.097957" style="fill: #800080; stroke: #ffffff; stroke-width: 0.75"/>
     <use xlink:href="#m9c7caee456" x="181.640475" y="278.220035" style="fill: #800080; stroke: #ffffff; stroke-width: 0.75"/>
     <use xlink:href="#m9c7caee456" x="184.189584" y="307.143538" style="fill: #800080; stroke: #ffffff; stroke-width: 0.75"/>
     <use xlink:href="#m9c7caee456" x="186.738693" y="96.034266" style="fill: #800080; stroke: #ffffff; stroke-width: 0.75"/>
     <use xlink:href="#m9c7caee456" x="189.287803" y="324.635849" style="fill: #800080; stroke: #ffffff; stroke-width: 0.75"/>
     <use xlink:href="#m9c7caee456" x="191.836912" y="354.777531" style="fill: #800080; stroke: #ffffff; stroke-width: 0.75"/>
     <use xlink:href="#m9c7caee456" x="194.386021" y="102.908621" style="fill: #800080; stroke: #ffffff; stroke-width: 0.75"/>
     <use xlink:href="#m9c7caee456" x="196.93513" y="354.872361" style="fill: #800080; stroke: #ffffff; stroke-width: 0.75"/>
     <use xlink:href="#m9c7caee456" x="199.484239" y="312.947259" style="fill: #800080; stroke: #ffffff; stroke-width: 0.75"/>
     <use xlink:href="#m9c7caee456" x="202.033349" y="199.450449" style="fill: #800080; stroke: #ffffff; stroke-width: 0.75"/>
     <use xlink:href="#m9c7caee456" x="204.582458" y="227.523829" style="fill: #800080; stroke: #ffffff; stroke-width: 0.75"/>
     <use xlink:href="#m9c7caee456" x="207.131567" y="248.98347" style="fill: #800080; stroke: #ffffff; stroke-width: 0.75"/>
     <use xlink:href="#m9c7caee456" x="209.680676" y="269.452419" style="fill: #800080; stroke: #ffffff; stroke-width: 0.75"/>
     <use xlink:href="#m9c7caee456" x="212.229785" y="310.301522" style="fill: #800080; stroke: #ffffff; stroke-width: 0.75"/>
     <use xlink:href="#m9c7caee456" x="214.778894" y="158.102245" style="fill: #800080; stroke: #ffffff; stroke-width: 0.75"/>
     <use xlink:href="#m9c7caee456" x="217.328004" y="313.439654" style="fill: #800080; stroke: #ffffff; stroke-width: 0.75"/>
     <use xlink:href="#m9c7caee456" x="219.877113" y="242.892844" style="fill: #800080; stroke: #ffffff; stroke-width: 0.75"/>
     <use xlink:href="#m9c7caee456" x="222.426222" y="211.407972" style="fill: #800080; stroke: #ffffff; stroke-width: 0.75"/>
     <use xlink:href="#m9c7caee456" x="224.975331" y="176.406988" style="fill: #800080; stroke: #ffffff; stroke-width: 0.75"/>
     <use xlink:href="#m9c7caee456" x="227.52444" y="279.657921" style="fill: #800080; stroke: #ffffff; stroke-width: 0.75"/>
     <use xlink:href="#m9c7caee456" x="230.07355" y="66.96" style="fill: #800080; stroke: #ffffff; stroke-width: 0.75"/>
     <use xlink:href="#m9c7caee456" x="232.622659" y="134.784217" style="fill: #800080; stroke: #ffffff; stroke-width: 0.75"/>
     <use xlink:href="#m9c7caee456" x="235.171768" y="333.988277" style="fill: #800080; stroke: #ffffff; stroke-width: 0.75"/>
     <use xlink:href="#m9c7caee456" x="237.720877" y="265.075586" style="fill: #800080; stroke: #ffffff; stroke-width: 0.75"/>
     <use xlink:href="#m9c7caee456" x="240.269986" y="240.285737" style="fill: #800080; stroke: #ffffff; stroke-width: 0.75"/>
     <use xlink:href="#m9c7caee456" x="242.819095" y="271.38659" style="fill: #800080; stroke: #ffffff; stroke-width: 0.75"/>
     <use xlink:href="#m9c7caee456" x="245.368205" y="209.909459" style="fill: #800080; stroke: #ffffff; stroke-width: 0.75"/>
     <use xlink:href="#m9c7caee456" x="247.917314" y="340.313365" style="fill: #800080; stroke: #ffffff; stroke-width: 0.75"/>
     <use xlink:href="#m9c7caee456" x="250.466423" y="361.896138" style="fill: #800080; stroke: #ffffff; stroke-width: 0.75"/>
     <use xlink:href="#m9c7caee456" x="253.015532" y="244.922382" style="fill: #800080; stroke: #ffffff; stroke-width: 0.75"/>
     <use xlink:href="#m9c7caee456" x="255.564641" y="354.278563" style="fill: #800080; stroke: #ffffff; stroke-width: 0.75"/>
     <use xlink:href="#m9c7caee456" x="258.113751" y="245.397743" style="fill: #800080; stroke: #ffffff; stroke-width: 0.75"/>
     <use xlink:href="#m9c7caee456" x="260.66286" y="304.665063" style="fill: #800080; stroke: #ffffff; stroke-width: 0.75"/>
     <use xlink:href="#m9c7caee456" x="263.211969" y="257.924921" style="fill: #800080; stroke: #ffffff; stroke-width: 0.75"/>
     <use xlink:href="#m9c7caee456" x="265.761078" y="316.020203" style="fill: #800080; stroke: #ffffff; stroke-width: 0.75"/>
     <use xlink:href="#m9c7caee456" x="268.310187" y="240.495652" style="fill: #800080; stroke: #ffffff; stroke-width: 0.75"/>
     <use xlink:href="#m9c7caee456" x="270.859296" y="227.381382" style="fill: #800080; stroke: #ffffff; stroke-width: 0.75"/>
     <use xlink:href="#m9c7caee456" x="273.408406" y="240.501017" style="fill: #800080; stroke: #ffffff; stroke-width: 0.75"/>
     <use xlink:href="#m9c7caee456" x="275.957515" y="339.725736" style="fill: #800080; stroke: #ffffff; stroke-width: 0.75"/>
     <use xlink:href="#m9c7caee456" x="278.506624" y="173.449396" style="fill: #800080; stroke: #ffffff; stroke-width: 0.75"/>
     <use xlink:href="#m9c7caee456" x="281.055733" y="238.633912" style="fill: #800080; stroke: #ffffff; stroke-width: 0.75"/>
     <use xlink:href="#m9c7caee456" x="283.604842" y="209.999595" style="fill: #800080; stroke: #ffffff; stroke-width: 0.75"/>
     <use xlink:href="#m9c7caee456" x="286.153952" y="217.755729" style="fill: #800080; stroke: #ffffff; stroke-width: 0.75"/>
     <use xlink:href="#m9c7caee456" x="288.703061" y="304.230746" style="fill: #800080; stroke: #ffffff; stroke-width: 0.75"/>
     <use xlink:href="#m9c7caee456" x="291.25217" y="338.336003" style="fill: #800080; stroke: #ffffff; stroke-width: 0.75"/>
     <use xlink:href="#m9c7caee456" x="293.801279" y="286.884907" style="fill: #800080; stroke: #ffffff; stroke-width: 0.75"/>
     <use xlink:href="#m9c7caee456" x="296.350388" y="147.99439" style="fill: #800080; stroke: #ffffff; stroke-width: 0.75"/>
     <use xlink:href="#m9c7caee456" x="298.899497" y="160.695134" style="fill: #800080; stroke: #ffffff; stroke-width: 0.75"/>
     <use xlink:href="#m9c7caee456" x="301.448607" y="350.227266" style="fill: #800080; stroke: #ffffff; stroke-width: 0.75"/>
     <use xlink:href="#m9c7caee456" x="303.997716" y="229.977088" style="fill: #800080; stroke: #ffffff; stroke-width: 0.75"/>
     <use xlink:href="#m9c7caee456" x="306.546825" y="296.013604" style="fill: #800080; stroke: #ffffff; stroke-width: 0.75"/>
     <use xlink:href="#m9c7caee456" x="309.095934" y="307.766712" style="fill: #800080; stroke: #ffffff; stroke-width: 0.75"/>
     <use xlink:href="#m9c7caee456" x="311.645043" y="366.204297" style="fill: #800080; stroke: #ffffff; stroke-width: 0.75"/>
     <use xlink:href="#m9c7caee456" x="314.194153" y="323.296013" style="fill: #800080; stroke: #ffffff; stroke-width: 0.75"/>
     <use xlink:href="#m9c7caee456" x="316.743262" y="279.753691" style="fill: #800080; stroke: #ffffff; stroke-width: 0.75"/>
     <use xlink:href="#m9c7caee456" x="319.292371" y="342.390788" style="fill: #800080; stroke: #ffffff; stroke-width: 0.75"/>
     <use xlink:href="#m9c7caee456" x="321.84148" y="185.826347" style="fill: #800080; stroke: #ffffff; stroke-width: 0.75"/>
     <use xlink:href="#m9c7caee456" x="324.390589" y="274.071091" style="fill: #800080; stroke: #ffffff; stroke-width: 0.75"/>
     <use xlink:href="#m9c7caee456" x="326.939698" y="69.276311" style="fill: #800080; stroke: #ffffff; stroke-width: 0.75"/>
     <use xlink:href="#m9c7caee456" x="329.488808" y="333.063308" style="fill: #800080; stroke: #ffffff; stroke-width: 0.75"/>
     <use xlink:href="#m9c7caee456" x="332.037917" y="351.155856" style="fill: #800080; stroke: #ffffff; stroke-width: 0.75"/>
     <use xlink:href="#m9c7caee456" x="334.587026" y="233.65094" style="fill: #800080; stroke: #ffffff; stroke-width: 0.75"/>
     <use xlink:href="#m9c7caee456" x="337.136135" y="291.064165" style="fill: #800080; stroke: #ffffff; stroke-width: 0.75"/>
     <use xlink:href="#m9c7caee456" x="339.685244" y="354.257638" style="fill: #800080; stroke: #ffffff; stroke-width: 0.75"/>
     <use xlink:href="#m9c7caee456" x="342.234354" y="324.982309" style="fill: #800080; stroke: #ffffff; stroke-width: 0.75"/>
     <use xlink:href="#m9c7caee456" x="344.783463" y="319.989814" style="fill: #800080; stroke: #ffffff; stroke-width: 0.75"/>
     <use xlink:href="#m9c7caee456" x="347.332572" y="326.322816" style="fill: #800080; stroke: #ffffff; stroke-width: 0.75"/>
     <use xlink:href="#m9c7caee456" x="349.881681" y="316.813052" style="fill: #800080; stroke: #ffffff; stroke-width: 0.75"/>
     <use xlink:href="#m9c7caee456" x="352.43079" y="269.229493" style="fill: #800080; stroke: #ffffff; stroke-width: 0.75"/>
     <use xlink:href="#m9c7caee456" x="354.979899" y="247.220987" style="fill: #800080; stroke: #ffffff; stroke-width: 0.75"/>
     <use xlink:href="#m9c7caee456" x="357.529009" y="131.322023" style="fill: #800080; stroke: #ffffff; stroke-width: 0.75"/>
     <use xlink:href="#m9c7caee456" x="360.078118" y="126.372987" style="fill: #800080; stroke: #ffffff; stroke-width: 0.75"/>
     <use xlink:href="#m9c7caee456" x="362.627227" y="361.634851" style="fill: #800080; stroke: #ffffff; stroke-width: 0.75"/>
     <use xlink:href="#m9c7caee456" x="365.176336" y="323.26704" style="fill: #800080; stroke: #ffffff; stroke-width: 0.75"/>
     <use xlink:href="#m9c7caee456" x="367.725445" y="347.265382" style="fill: #800080; stroke: #ffffff; stroke-width: 0.75"/>
     <use xlink:href="#m9c7caee456" x="370.274555" y="282.793907" style="fill: #800080; stroke: #ffffff; stroke-width: 0.75"/>
     <use xlink:href="#m9c7caee456" x="372.823664" y="328.485412" style="fill: #800080; stroke: #ffffff; stroke-width: 0.75"/>
     <use xlink:href="#m9c7caee456" x="375.372773" y="309.819857" style="fill: #800080; stroke: #ffffff; stroke-width: 0.75"/>
     <use xlink:href="#m9c7caee456" x="377.921882" y="273.066046" style="fill: #800080; stroke: #ffffff; stroke-width: 0.75"/>
     <use xlink:href="#m9c7caee456" x="380.470991" y="307.1595" style="fill: #800080; stroke: #ffffff; stroke-width: 0.75"/>
     <use xlink:href="#m9c7caee456" x="383.020101" y="351.415131" style="fill: #800080; stroke: #ffffff; stroke-width: 0.75"/>
     <use xlink:href="#m9c7caee456" x="385.56921" y="144.699325" style="fill: #800080; stroke: #ffffff; stroke-width: 0.75"/>
     <use xlink:href="#m9c7caee456" x="388.118319" y="324.781515" style="fill: #800080; stroke: #ffffff; stroke-width: 0.75"/>
     <use xlink:href="#m9c7caee456" x="390.667428" y="351.244919" style="fill: #800080; stroke: #ffffff; stroke-width: 0.75"/>
     <use xlink:href="#m9c7caee456" x="393.216537" y="341.060475" style="fill: #800080; stroke: #ffffff; stroke-width: 0.75"/>
     <use xlink:href="#m9c7caee456" x="395.765646" y="289.998627" style="fill: #800080; stroke: #ffffff; stroke-width: 0.75"/>
     <use xlink:href="#m9c7caee456" x="398.314756" y="299.386198" style="fill: #800080; stroke: #ffffff; stroke-width: 0.75"/>
     <use xlink:href="#m9c7caee456" x="400.863865" y="344.516498" style="fill: #800080; stroke: #ffffff; stroke-width: 0.75"/>
     <use xlink:href="#m9c7caee456" x="403.412974" y="368.813818" style="fill: #800080; stroke: #ffffff; stroke-width: 0.75"/>
     <use xlink:href="#m9c7caee456" x="405.962083" y="173.987798" style="fill: #800080; stroke: #ffffff; stroke-width: 0.75"/>
     <use xlink:href="#m9c7caee456" x="408.511192" y="351.64919" style="fill: #800080; stroke: #ffffff; stroke-width: 0.75"/>
     <use xlink:href="#m9c7caee456" x="411.060302" y="345.976382" style="fill: #800080; stroke: #ffffff; stroke-width: 0.75"/>
     <use xlink:href="#m9c7caee456" x="413.609411" y="254.831052" style="fill: #800080; stroke: #ffffff; stroke-width: 0.75"/>
     <use xlink:href="#m9c7caee456" x="416.15852" y="365.780576" style="fill: #800080; stroke: #ffffff; stroke-width: 0.75"/>
     <use xlink:href="#m9c7caee456" x="418.707629" y="209.035461" style="fill: #800080; stroke: #ffffff; stroke-width: 0.75"/>
     <use xlink:href="#m9c7caee456" x="421.256738" y="369.36" style="fill: #800080; stroke: #ffffff; stroke-width: 0.75"/>
     <use xlink:href="#m9c7caee456" x="423.805847" y="350.298087" style="fill: #800080; stroke: #ffffff; stroke-width: 0.75"/>
     <use xlink:href="#m9c7caee456" x="426.354957" y="282.528998" style="fill: #800080; stroke: #ffffff; stroke-width: 0.75"/>
     <use xlink:href="#m9c7caee456" x="428.904066" y="201.606608" style="fill: #800080; stroke: #ffffff; stroke-width: 0.75"/>
     <use xlink:href="#m9c7caee456" x="431.453175" y="282.939842" style="fill: #800080; stroke: #ffffff; stroke-width: 0.75"/>
     <use xlink:href="#m9c7caee456" x="434.002284" y="348.081838" style="fill: #800080; stroke: #ffffff; stroke-width: 0.75"/>
     <use xlink:href="#m9c7caee456" x="436.551393" y="317.293778" style="fill: #800080; stroke: #ffffff; stroke-width: 0.75"/>
     <use xlink:href="#m9c7caee456" x="439.100503" y="98.887504" style="fill: #800080; stroke: #ffffff; stroke-width: 0.75"/>
     <use xlink:href="#m9c7caee456" x="441.649612" y="109.481718" style="fill: #800080; stroke: #ffffff; stroke-width: 0.75"/>
     <use xlink:href="#m9c7caee456" x="444.198721" y="368.212374" style="fill: #800080; stroke: #ffffff; stroke-width: 0.75"/>
     <use xlink:href="#m9c7caee456" x="446.74783" y="361.424802" style="fill: #800080; stroke: #ffffff; stroke-width: 0.75"/>
     <use xlink:href="#m9c7caee456" x="449.296939" y="333.826783" style="fill: #800080; stroke: #ffffff; stroke-width: 0.75"/>
     <use xlink:href="#m9c7caee456" x="451.846048" y="344.342798" style="fill: #800080; stroke: #ffffff; stroke-width: 0.75"/>
     <use xlink:href="#m9c7caee456" x="454.395158" y="312.965366" style="fill: #800080; stroke: #ffffff; stroke-width: 0.75"/>
     <use xlink:href="#m9c7caee456" x="456.944267" y="119.102945" style="fill: #800080; stroke: #ffffff; stroke-width: 0.75"/>
     <use xlink:href="#m9c7caee456" x="459.493376" y="362.315701" style="fill: #800080; stroke: #ffffff; stroke-width: 0.75"/>
     <use xlink:href="#m9c7caee456" x="462.042485" y="136.778478" style="fill: #800080; stroke: #ffffff; stroke-width: 0.75"/>
     <use xlink:href="#m9c7caee456" x="464.591594" y="351.15438" style="fill: #800080; stroke: #ffffff; stroke-width: 0.75"/>
     <use xlink:href="#m9c7caee456" x="467.140704" y="194.275536" style="fill: #800080; stroke: #ffffff; stroke-width: 0.75"/>
     <use xlink:href="#m9c7caee456" x="469.689813" y="343.168346" style="fill: #800080; stroke: #ffffff; stroke-width: 0.75"/>
     <use xlink:href="#m9c7caee456" x="472.238922" y="245.13337" style="fill: #800080; stroke: #ffffff; stroke-width: 0.75"/>
     <use xlink:href="#m9c7caee456" x="474.788031" y="185.458425" style="fill: #800080; stroke: #ffffff; stroke-width: 0.75"/>
     <use xlink:href="#m9c7caee456" x="477.33714" y="341.819255" style="fill: #800080; stroke: #ffffff; stroke-width: 0.75"/>
     <use xlink:href="#m9c7caee456" x="479.886249" y="359.924679" style="fill: #800080; stroke: #ffffff; stroke-width: 0.75"/>
     <use xlink:href="#m9c7caee456" x="482.435359" y="200.82744" style="fill: #800080; stroke: #ffffff; stroke-width: 0.75"/>
     <use xlink:href="#m9c7caee456" x="484.984468" y="278.207293" style="fill: #800080; stroke: #ffffff; stroke-width: 0.75"/>
     <use xlink:href="#m9c7caee456" x="487.533577" y="354.235104" style="fill: #800080; stroke: #ffffff; stroke-width: 0.75"/>
     <use xlink:href="#m9c7caee456" x="490.082686" y="361.725255" style="fill: #800080; stroke: #ffffff; stroke-width: 0.75"/>
     <use xlink:href="#m9c7caee456" x="492.631795" y="235.734667" style="fill: #800080; stroke: #ffffff; stroke-width: 0.75"/>
     <use xlink:href="#m9c7caee456" x="495.180905" y="304.675525" style="fill: #800080; stroke: #ffffff; stroke-width: 0.75"/>
     <use xlink:href="#m9c7caee456" x="497.730014" y="320.070829" style="fill: #800080; stroke: #ffffff; stroke-width: 0.75"/>
     <use xlink:href="#m9c7caee456" x="500.279123" y="343.079149" style="fill: #800080; stroke: #ffffff; stroke-width: 0.75"/>
     <use xlink:href="#m9c7caee456" x="502.828232" y="351.351821" style="fill: #800080; stroke: #ffffff; stroke-width: 0.75"/>
     <use xlink:href="#m9c7caee456" x="505.377341" y="346.39809" style="fill: #800080; stroke: #ffffff; stroke-width: 0.75"/>
     <use xlink:href="#m9c7caee456" x="507.92645" y="178.964868" style="fill: #800080; stroke: #ffffff; stroke-width: 0.75"/>
     <use xlink:href="#m9c7caee456" x="510.47556" y="349.846199" style="fill: #800080; stroke: #ffffff; stroke-width: 0.75"/>
     <use xlink:href="#m9c7caee456" x="513.024669" y="363.841979" style="fill: #800080; stroke: #ffffff; stroke-width: 0.75"/>
     <use xlink:href="#m9c7caee456" x="515.573778" y="360.86695" style="fill: #800080; stroke: #ffffff; stroke-width: 0.75"/>
     <use xlink:href="#m9c7caee456" x="518.122887" y="347.758984" style="fill: #800080; stroke: #ffffff; stroke-width: 0.75"/>
     <use xlink:href="#m9c7caee456" x="520.671996" y="348.959458" style="fill: #800080; stroke: #ffffff; stroke-width: 0.75"/>
     <use xlink:href="#m9c7caee456" x="523.221106" y="304.529859" style="fill: #800080; stroke: #ffffff; stroke-width: 0.75"/>
     <use xlink:href="#m9c7caee456" x="525.770215" y="213.071199" style="fill: #800080; stroke: #ffffff; stroke-width: 0.75"/>
     <use xlink:href="#m9c7caee456" x="528.319324" y="227.131496" style="fill: #800080; stroke: #ffffff; stroke-width: 0.75"/>
     <use xlink:href="#m9c7caee456" x="530.868433" y="235.848813" style="fill: #800080; stroke: #ffffff; stroke-width: 0.75"/>
     <use xlink:href="#m9c7caee456" x="533.417542" y="343.273907" style="fill: #800080; stroke: #ffffff; stroke-width: 0.75"/>
     <use xlink:href="#m9c7caee456" x="535.966651" y="238.09846" style="fill: #800080; stroke: #ffffff; stroke-width: 0.75"/>
     <use xlink:href="#m9c7caee456" x="538.515761" y="148.039056" style="fill: #800080; stroke: #ffffff; stroke-width: 0.75"/>
     <use xlink:href="#m9c7caee456" x="541.06487" y="355.663869" style="fill: #800080; stroke: #ffffff; stroke-width: 0.75"/>
     <use xlink:href="#m9c7caee456" x="543.613979" y="196.543559" style="fill: #800080; stroke: #ffffff; stroke-width: 0.75"/>
     <use xlink:href="#m9c7caee456" x="546.163088" y="314.678489" style="fill: #800080; stroke: #ffffff; stroke-width: 0.75"/>
     <use xlink:href="#m9c7caee456" x="548.712197" y="350.58942" style="fill: #800080; stroke: #ffffff; stroke-width: 0.75"/>
     <use xlink:href="#m9c7caee456" x="551.261307" y="331.893685" style="fill: #800080; stroke: #ffffff; stroke-width: 0.75"/>
     <use xlink:href="#m9c7caee456" x="553.810416" y="354.504708" style="fill: #800080; stroke: #ffffff; stroke-width: 0.75"/>
     <use xlink:href="#m9c7caee456" x="556.359525" y="361.708087" style="fill: #800080; stroke: #ffffff; stroke-width: 0.75"/>
     <use xlink:href="#m9c7caee456" x="558.908634" y="289.300207" style="fill: #800080; stroke: #ffffff; stroke-width: 0.75"/>
     <use xlink:href="#m9c7caee456" x="561.457743" y="133.403202" style="fill: #800080; stroke: #ffffff; stroke-width: 0.75"/>
     <use xlink:href="#m9c7caee456" x="564.006852" y="324.965409" style="fill: #800080; stroke: #ffffff; stroke-width: 0.75"/>
     <use xlink:href="#m9c7caee456" x="566.555962" y="365.299448" style="fill: #800080; stroke: #ffffff; stroke-width: 0.75"/>
     <use xlink:href="#m9c7caee456" x="569.105071" y="266.965091" style="fill: #800080; stroke: #ffffff; stroke-width: 0.75"/>
     <use xlink:href="#m9c7caee456" x="571.65418" y="272.115459" style="fill: #800080; stroke: #ffffff; stroke-width: 0.75"/>
     <use xlink:href="#m9c7caee456" x="574.203289" y="256.711704" style="fill: #800080; stroke: #ffffff; stroke-width: 0.75"/>
     <use xlink:href="#m9c7caee456" x="576.752398" y="239.276534" style="fill: #800080; stroke: #ffffff; stroke-width: 0.75"/>
     <use xlink:href="#m9c7caee456" x="579.301508" y="154.159326" style="fill: #800080; stroke: #ffffff; stroke-width: 0.75"/>
     <use xlink:href="#m9c7caee456" x="581.850617" y="363.691081" style="fill: #800080; stroke: #ffffff; stroke-width: 0.75"/>
     <use xlink:href="#m9c7caee456" x="584.399726" y="274.406687" style="fill: #800080; stroke: #ffffff; stroke-width: 0.75"/>
     <use xlink:href="#m9c7caee456" x="586.948835" y="185.177689" style="fill: #800080; stroke: #ffffff; stroke-width: 0.75"/>
     <use xlink:href="#m9c7caee456" x="589.497944" y="368.142357" style="fill: #800080; stroke: #ffffff; stroke-width: 0.75"/>
     <use xlink:href="#m9c7caee456" x="592.047053" y="369.287033" style="fill: #800080; stroke: #ffffff; stroke-width: 0.75"/>
     <use xlink:href="#m9c7caee456" x="594.596163" y="269.68688" style="fill: #800080; stroke: #ffffff; stroke-width: 0.75"/>
     <use xlink:href="#m9c7caee456" x="597.145272" y="291.165971" style="fill: #800080; stroke: #ffffff; stroke-width: 0.75"/>
     <use xlink:href="#m9c7caee456" x="599.694381" y="329.521307" style="fill: #800080; stroke: #ffffff; stroke-width: 0.75"/>
     <use xlink:href="#m9c7caee456" x="602.24349" y="314.438395" style="fill: #800080; stroke: #ffffff; stroke-width: 0.75"/>
     <use xlink:href="#m9c7caee456" x="604.792599" y="328.173155" style="fill: #800080; stroke: #ffffff; stroke-width: 0.75"/>
     <use xlink:href="#m9c7caee456" x="607.341709" y="167.180643" style="fill: #800080; stroke: #ffffff; stroke-width: 0.75"/>
     <use xlink:href="#m9c7caee456" x="609.890818" y="268.549448" style="fill: #800080; stroke: #ffffff; stroke-width: 0.75"/>
     <use xlink:href="#m9c7caee456" x="612.439927" y="323.321095" style="fill: #800080; stroke: #ffffff; stroke-width: 0.75"/>
     <use xlink:href="#m9c7caee456" x="614.989036" y="205.949908" style="fill: #800080; stroke: #ffffff; stroke-width: 0.75"/>
     <use xlink:href="#m9c7caee456" x="617.538145" y="305.210708" style="fill: #800080; stroke: #ffffff; stroke-width: 0.75"/>
     <use xlink:href="#m9c7caee456" x="620.087254" y="259.957544" style="fill: #800080; stroke: #ffffff; stroke-width: 0.75"/>
     <use xlink:href="#m9c7caee456" x="622.636364" y="260.719945" style="fill: #800080; stroke: #ffffff; stroke-width: 0.75"/>
    </g>
   </g>
   <g id="patch_3">
    <path d="M 90 384.48 
L 90 51.84 
" style="fill: none; stroke: #ffffff; stroke-width: 1.25; stroke-linejoin: miter; stroke-linecap: square"/>
   </g>
   <g id="patch_4">
    <path d="M 648 384.48 
L 648 51.84 
" style="fill: none; stroke: #ffffff; stroke-width: 1.25; stroke-linejoin: miter; stroke-linecap: square"/>
   </g>
   <g id="patch_5">
    <path d="M 90 384.48 
L 648 384.48 
" style="fill: none; stroke: #ffffff; stroke-width: 1.25; stroke-linejoin: miter; stroke-linecap: square"/>
   </g>
   <g id="patch_6">
    <path d="M 90 51.84 
L 648 51.84 
" style="fill: none; stroke: #ffffff; stroke-width: 1.25; stroke-linejoin: miter; stroke-linecap: square"/>
   </g>
   <g id="text_15">
    <!-- Sales Trends Over Time -->
    <g style="fill: #262626" transform="translate(304.645312 45.84) scale(0.12 -0.12)">
     <defs>
      <path id="ArialMT-53" d="M 288 1472 
L 859 1522 
Q 900 1178 1048 958 
Q 1197 738 1509 602 
Q 1822 466 2213 466 
Q 2559 466 2825 569 
Q 3091 672 3220 851 
Q 3350 1031 3350 1244 
Q 3350 1459 3225 1620 
Q 3100 1781 2813 1891 
Q 2628 1963 1997 2114 
Q 1366 2266 1113 2400 
Q 784 2572 623 2826 
Q 463 3081 463 3397 
Q 463 3744 659 4045 
Q 856 4347 1234 4503 
Q 1613 4659 2075 4659 
Q 2584 4659 2973 4495 
Q 3363 4331 3572 4012 
Q 3781 3694 3797 3291 
L 3216 3247 
Q 3169 3681 2898 3903 
Q 2628 4125 2100 4125 
Q 1550 4125 1298 3923 
Q 1047 3722 1047 3438 
Q 1047 3191 1225 3031 
Q 1400 2872 2139 2705 
Q 2878 2538 3153 2413 
Q 3553 2228 3743 1945 
Q 3934 1663 3934 1294 
Q 3934 928 3725 604 
Q 3516 281 3123 101 
Q 2731 -78 2241 -78 
Q 1619 -78 1198 103 
Q 778 284 539 648 
Q 300 1013 288 1472 
z
" transform="scale(0.015625)"/>
      <path id="ArialMT-73" d="M 197 991 
L 753 1078 
Q 800 744 1014 566 
Q 1228 388 1613 388 
Q 2000 388 2187 545 
Q 2375 703 2375 916 
Q 2375 1106 2209 1216 
Q 2094 1291 1634 1406 
Q 1016 1563 777 1677 
Q 538 1791 414 1992 
Q 291 2194 291 2438 
Q 291 2659 392 2848 
Q 494 3038 669 3163 
Q 800 3259 1026 3326 
Q 1253 3394 1513 3394 
Q 1903 3394 2198 3281 
Q 2494 3169 2634 2976 
Q 2775 2784 2828 2463 
L 2278 2388 
Q 2241 2644 2061 2787 
Q 1881 2931 1553 2931 
Q 1166 2931 1000 2803 
Q 834 2675 834 2503 
Q 834 2394 903 2306 
Q 972 2216 1119 2156 
Q 1203 2125 1616 2013 
Q 2213 1853 2448 1751 
Q 2684 1650 2818 1456 
Q 2953 1263 2953 975 
Q 2953 694 2789 445 
Q 2625 197 2315 61 
Q 2006 -75 1616 -75 
Q 969 -75 630 194 
Q 291 463 197 991 
z
" transform="scale(0.015625)"/>
      <path id="ArialMT-20" transform="scale(0.015625)"/>
      <path id="ArialMT-72" d="M 416 0 
L 416 3319 
L 922 3319 
L 922 2816 
Q 1116 3169 1280 3281 
Q 1444 3394 1641 3394 
Q 1925 3394 2219 3213 
L 2025 2691 
Q 1819 2813 1613 2813 
Q 1428 2813 1281 2702 
Q 1134 2591 1072 2394 
Q 978 2094 978 1738 
L 978 0 
L 416 0 
z
" transform="scale(0.015625)"/>
      <path id="ArialMT-64" d="M 2575 0 
L 2575 419 
Q 2259 -75 1647 -75 
Q 1250 -75 917 144 
Q 584 363 401 755 
Q 219 1147 219 1656 
Q 219 2153 384 2558 
Q 550 2963 881 3178 
Q 1213 3394 1622 3394 
Q 1922 3394 2156 3267 
Q 2391 3141 2538 2938 
L 2538 4581 
L 3097 4581 
L 3097 0 
L 2575 0 
z
M 797 1656 
Q 797 1019 1065 703 
Q 1334 388 1700 388 
Q 2069 388 2326 689 
Q 2584 991 2584 1609 
Q 2584 2291 2321 2609 
Q 2059 2928 1675 2928 
Q 1300 2928 1048 2622 
Q 797 2316 797 1656 
z
" transform="scale(0.015625)"/>
      <path id="ArialMT-4f" d="M 309 2231 
Q 309 3372 921 4017 
Q 1534 4663 2503 4663 
Q 3138 4663 3647 4359 
Q 4156 4056 4423 3514 
Q 4691 2972 4691 2284 
Q 4691 1588 4409 1038 
Q 4128 488 3612 205 
Q 3097 -78 2500 -78 
Q 1853 -78 1343 234 
Q 834 547 571 1087 
Q 309 1628 309 2231 
z
M 934 2222 
Q 934 1394 1379 917 
Q 1825 441 2497 441 
Q 3181 441 3623 922 
Q 4066 1403 4066 2288 
Q 4066 2847 3877 3264 
Q 3688 3681 3323 3911 
Q 2959 4141 2506 4141 
Q 1863 4141 1398 3698 
Q 934 3256 934 2222 
z
" transform="scale(0.015625)"/>
      <path id="ArialMT-69" d="M 425 3934 
L 425 4581 
L 988 4581 
L 988 3934 
L 425 3934 
z
M 425 0 
L 425 3319 
L 988 3319 
L 988 0 
L 425 0 
z
" transform="scale(0.015625)"/>
      <path id="ArialMT-6d" d="M 422 0 
L 422 3319 
L 925 3319 
L 925 2853 
Q 1081 3097 1340 3245 
Q 1600 3394 1931 3394 
Q 2300 3394 2536 3241 
Q 2772 3088 2869 2813 
Q 3263 3394 3894 3394 
Q 4388 3394 4653 3120 
Q 4919 2847 4919 2278 
L 4919 0 
L 4359 0 
L 4359 2091 
Q 4359 2428 4304 2576 
Q 4250 2725 4106 2815 
Q 3963 2906 3769 2906 
Q 3419 2906 3187 2673 
Q 2956 2441 2956 1928 
L 2956 0 
L 2394 0 
L 2394 2156 
Q 2394 2531 2256 2718 
Q 2119 2906 1806 2906 
Q 1569 2906 1367 2781 
Q 1166 2656 1075 2415 
Q 984 2175 984 1722 
L 984 0 
L 422 0 
z
" transform="scale(0.015625)"/>
     </defs>
     <use xlink:href="#ArialMT-53"/>
     <use xlink:href="#ArialMT-61" transform="translate(66.699219 0)"/>
     <use xlink:href="#ArialMT-6c" transform="translate(122.314453 0)"/>
     <use xlink:href="#ArialMT-65" transform="translate(144.53125 0)"/>
     <use xlink:href="#ArialMT-73" transform="translate(200.146484 0)"/>
     <use xlink:href="#ArialMT-20" transform="translate(250.146484 0)"/>
     <use xlink:href="#ArialMT-54" transform="translate(276.179688 0)"/>
     <use xlink:href="#ArialMT-72" transform="translate(333.513672 0)"/>
     <use xlink:href="#ArialMT-65" transform="translate(366.814453 0)"/>
     <use xlink:href="#ArialMT-6e" transform="translate(422.429688 0)"/>
     <use xlink:href="#ArialMT-64" transform="translate(478.044922 0)"/>
     <use xlink:href="#ArialMT-73" transform="translate(533.660156 0)"/>
     <use xlink:href="#ArialMT-20" transform="translate(583.660156 0)"/>
     <use xlink:href="#ArialMT-4f" transform="translate(611.443359 0)"/>
     <use xlink:href="#ArialMT-76" transform="translate(689.226562 0)"/>
     <use xlink:href="#ArialMT-65" transform="translate(739.226562 0)"/>
     <use xlink:href="#ArialMT-72" transform="translate(794.841797 0)"/>
     <use xlink:href="#ArialMT-20" transform="translate(828.142578 0)"/>
     <use xlink:href="#ArialMT-54" transform="translate(854.175781 0)"/>
     <use xlink:href="#ArialMT-69" transform="translate(911.509766 0)"/>
     <use xlink:href="#ArialMT-6d" transform="translate(933.726562 0)"/>
     <use xlink:href="#ArialMT-65" transform="translate(1017.027344 0)"/>
    </g>
   </g>
  </g>
 </g>
 <defs>
  <clipPath id="p0c11eada3a">
   <rect x="90" y="51.84" width="558" height="332.64"/>
  </clipPath>
 </defs>
</svg>
